<svg width="62" height="62" viewBox="0 0 62 62" fill="none" xmlns="http://www.w3.org/2000/svg">
<path d="M34.7285 11.4651C34.7285 10.6559 35.295 10 35.9939 10H36.6212C43.6096 10 49.2748 16.5594 49.2748 24.6506V25.4824C49.2748 26.2914 48.7084 26.9474 48.0094 26.9474H35.9939C35.295 26.9474 34.7285 26.2914 34.7285 25.4822V11.4651Z" fill="#222225"/>
<path d="M34.7031 33.3152C34.7031 32.4744 35.2696 31.793 35.9685 31.793H47.984C48.683 31.793 49.2494 32.4744 49.2494 33.3152V54.4814C49.2494 55.322 48.683 56.0034 47.984 56.0034H35.9685C35.2696 56.0034 34.7031 55.322 34.7031 54.4814V33.3152Z" fill="#EA580C"/>
<path d="M16 11.5456C16 10.692 16.5665 10 17.2654 10H29.281C29.9798 10 30.5463 10.692 30.5463 11.5456V37.507C30.5463 38.3606 29.9798 39.0526 29.281 39.0526H17.2654C16.5665 39.0526 16 38.3606 16 37.507V11.5456Z" fill="#222225"/>
<path d="M16 45.2898C16 44.5192 16.5665 43.8946 17.2654 43.8946H29.281C29.9798 43.8946 30.5463 44.5192 30.5463 45.2898V54.6044C30.5463 55.375 29.9798 55.9998 29.281 55.9998H17.2654C16.5665 55.9998 16 55.375 16 54.6044V45.2898Z" fill="#EA580C"/>
</svg>
